<svg width="16" height="16" viewBox="0 0 16 16" fill="none" xmlns="http://www.w3.org/2000/svg">
<rect width="16" height="16" rx="2" fill="#6943FF"/>
<path d="M8 2C4.6865 2 2 4.68678 2 8C2 11.3132 4.6865 14 8 14C11.314 14 14 11.3132 14 8C14 4.68678 11.3135 2 8 2ZM7.7295 4.40742C8.6845 4.34222 9.6675 4.60553 10.4455 5.37741C11.1585 6.09814 11.7005 7.10273 11.6895 8.04414H12.756L10.534 10.5333L8.3115 8.04414H9.468C9.4675 7.17947 9.2545 6.6689 8.578 5.99983C7.9155 5.32977 7.2445 4.94157 6.089 4.84477C6.60427 4.59884 7.16047 4.45022 7.7295 4.40742ZM5.467 5.46719L7.6895 7.95637H6.533C6.533 8.82103 6.746 9.33161 7.422 10.0007C8.085 10.6707 8.7555 11.0599 9.911 11.1567C8.569 11.7927 6.801 11.8579 5.556 10.6231C4.8425 9.90237 4.3 8.89777 4.3115 7.95637H3.244L5.467 5.46719Z" fill="white"/>
</svg>
